<mxfile host="app.diagrams.net" agent="Mozilla/5.0 (Windows NT 10.0; Win64; x64) AppleWebKit/537.36 (KHTML, like Gecko) Chrome/135.0.0.0 Safari/537.36" version="26.1.3">
  <diagram name="Page-1" id="X5MldqMP1_vz2D61NCjZ">
    <mxGraphModel grid="1" page="1" gridSize="10" guides="1" tooltips="1" connect="1" arrows="1" fold="1" pageScale="1" pageWidth="1100" pageHeight="850" math="0" shadow="0">
      <root>
        <mxCell id="0" />
        <mxCell id="1" parent="0" />
        <mxCell id="6LV_pg8BIO2cySYJx5an-1" value="" style="rounded=0;whiteSpace=wrap;html=1;" vertex="1" parent="1">
          <mxGeometry x="20" y="110" width="1030" height="140" as="geometry" />
        </mxCell>
        <mxCell id="D2tDqjX0iBv1bD29eZ2l-11" style="edgeStyle=orthogonalEdgeStyle;rounded=0;orthogonalLoop=1;jettySize=auto;html=1;entryX=0.5;entryY=0;entryDx=0;entryDy=0;fontFamily=Times New Roman;fontSize=13;" edge="1" parent="1" source="D2tDqjX0iBv1bD29eZ2l-1" target="D2tDqjX0iBv1bD29eZ2l-8">
          <mxGeometry relative="1" as="geometry">
            <Array as="points">
              <mxPoint x="180" y="180" />
              <mxPoint x="580" y="180" />
            </Array>
          </mxGeometry>
        </mxCell>
        <mxCell id="D2tDqjX0iBv1bD29eZ2l-1" value="CTGAN Decision Tree" style="rounded=1;whiteSpace=wrap;html=1;fontFamily=Times New Roman;fontSize=13;" vertex="1" parent="1">
          <mxGeometry x="120" y="120" width="120" height="40" as="geometry" />
        </mxCell>
        <mxCell id="D2tDqjX0iBv1bD29eZ2l-12" style="edgeStyle=orthogonalEdgeStyle;rounded=0;orthogonalLoop=1;jettySize=auto;html=1;exitX=0.5;exitY=1;exitDx=0;exitDy=0;entryX=0.5;entryY=0;entryDx=0;entryDy=0;fontFamily=Times New Roman;fontSize=13;" edge="1" parent="1" source="D2tDqjX0iBv1bD29eZ2l-3" target="D2tDqjX0iBv1bD29eZ2l-8">
          <mxGeometry relative="1" as="geometry" />
        </mxCell>
        <mxCell id="D2tDqjX0iBv1bD29eZ2l-3" value="CTGAN Support Vector Machine" style="rounded=1;whiteSpace=wrap;html=1;fontFamily=Times New Roman;fontSize=13;" vertex="1" parent="1">
          <mxGeometry x="280" y="120" width="120" height="40" as="geometry" />
        </mxCell>
        <mxCell id="D2tDqjX0iBv1bD29eZ2l-13" style="edgeStyle=orthogonalEdgeStyle;rounded=0;orthogonalLoop=1;jettySize=auto;html=1;exitX=0.5;exitY=1;exitDx=0;exitDy=0;entryX=0.5;entryY=0;entryDx=0;entryDy=0;fontFamily=Times New Roman;fontSize=13;" edge="1" parent="1" source="D2tDqjX0iBv1bD29eZ2l-4" target="D2tDqjX0iBv1bD29eZ2l-8">
          <mxGeometry relative="1" as="geometry" />
        </mxCell>
        <mxCell id="D2tDqjX0iBv1bD29eZ2l-4" value="CTGAN Random Forest" style="rounded=1;whiteSpace=wrap;html=1;fontFamily=Times New Roman;fontSize=13;" vertex="1" parent="1">
          <mxGeometry x="440" y="120" width="120" height="40" as="geometry" />
        </mxCell>
        <mxCell id="D2tDqjX0iBv1bD29eZ2l-14" style="edgeStyle=orthogonalEdgeStyle;rounded=0;orthogonalLoop=1;jettySize=auto;html=1;entryX=0.5;entryY=0;entryDx=0;entryDy=0;fontFamily=Times New Roman;fontSize=13;" edge="1" parent="1" source="D2tDqjX0iBv1bD29eZ2l-5" target="D2tDqjX0iBv1bD29eZ2l-8">
          <mxGeometry relative="1" as="geometry" />
        </mxCell>
        <mxCell id="D2tDqjX0iBv1bD29eZ2l-5" value="SMOTE Logistic Regression" style="rounded=1;whiteSpace=wrap;html=1;fontFamily=Times New Roman;fontSize=13;" vertex="1" parent="1">
          <mxGeometry x="600" y="120" width="120" height="40" as="geometry" />
        </mxCell>
        <mxCell id="D2tDqjX0iBv1bD29eZ2l-15" style="edgeStyle=orthogonalEdgeStyle;rounded=0;orthogonalLoop=1;jettySize=auto;html=1;fontFamily=Times New Roman;fontSize=13;" edge="1" parent="1" source="D2tDqjX0iBv1bD29eZ2l-6">
          <mxGeometry relative="1" as="geometry">
            <mxPoint x="580" y="200" as="targetPoint" />
            <Array as="points">
              <mxPoint x="820" y="180" />
              <mxPoint x="581" y="180" />
            </Array>
          </mxGeometry>
        </mxCell>
        <mxCell id="D2tDqjX0iBv1bD29eZ2l-6" value="SMOTE K Nearest Neighbours" style="rounded=1;whiteSpace=wrap;html=1;fontFamily=Times New Roman;fontSize=13;" vertex="1" parent="1">
          <mxGeometry x="760" y="120" width="120" height="40" as="geometry" />
        </mxCell>
        <mxCell id="D2tDqjX0iBv1bD29eZ2l-16" style="edgeStyle=orthogonalEdgeStyle;rounded=0;orthogonalLoop=1;jettySize=auto;html=1;entryX=0.5;entryY=0;entryDx=0;entryDy=0;fontFamily=Times New Roman;fontSize=13;" edge="1" parent="1" source="D2tDqjX0iBv1bD29eZ2l-7" target="D2tDqjX0iBv1bD29eZ2l-8">
          <mxGeometry relative="1" as="geometry">
            <Array as="points">
              <mxPoint x="980" y="180" />
              <mxPoint x="580" y="180" />
            </Array>
          </mxGeometry>
        </mxCell>
        <mxCell id="D2tDqjX0iBv1bD29eZ2l-7" value="SMOTE Random Forest" style="rounded=1;whiteSpace=wrap;html=1;fontFamily=Times New Roman;fontSize=13;" vertex="1" parent="1">
          <mxGeometry x="920" y="120" width="120" height="40" as="geometry" />
        </mxCell>
        <mxCell id="D2tDqjX0iBv1bD29eZ2l-8" value="CTGAN Support Vector Machine" style="rounded=1;whiteSpace=wrap;html=1;fontFamily=Times New Roman;fontSize=13;" vertex="1" parent="1">
          <mxGeometry x="520" y="200" width="120" height="40" as="geometry" />
        </mxCell>
        <mxCell id="D2tDqjX0iBv1bD29eZ2l-17" value="Level 0 Models" style="text;html=1;align=center;verticalAlign=middle;whiteSpace=wrap;rounded=0;fontFamily=Times New Roman;fontSize=13;" vertex="1" parent="1">
          <mxGeometry x="40" y="120" width="60" height="30" as="geometry" />
        </mxCell>
        <mxCell id="D2tDqjX0iBv1bD29eZ2l-18" value="Meta Model" style="text;html=1;align=center;verticalAlign=middle;whiteSpace=wrap;rounded=0;fontFamily=Times New Roman;fontSize=13;" vertex="1" parent="1">
          <mxGeometry x="410" y="205" width="60" height="30" as="geometry" />
        </mxCell>
      </root>
    </mxGraphModel>
  </diagram>
</mxfile>
